<svg xmlns="http://www.w3.org/2000/svg" width="24" height="24" class="Icon" tabindex="-1"><path fill="#fff" d="m11.994 2 .498.007c3.364.091 4.306 1.16 4.477 4.247h1.11c1.138 0 2.13.766 2.328 1.821l.022.153 1.558 11.561c.143 1.295-.89 2.378-2.198 2.46l-.158.005H4.367c-1.326 0-2.416-1.034-2.364-2.331l.012-.157L3.568 8.254C3.69 7.148 4.637 6.33 5.762 6.259l.161-.005H7.03C7.205 3.023 8.232 2 11.994 2zm6.084 6.254H5.923c-.182 0-.313.085-.356.19l-.014.052L4 20.01c-.01.092.096.21.283.238l.084.007h15.264c.21 0 .343-.107.368-.189l.003-.033-1.558-11.56c-.01-.102-.154-.218-.366-.218zm-3.078 4a1 1 0 0 1 1 1c0 2.732-1.44 4-4 4-2.559 0-4-1.268-4-4a1 1 0 1 1 2 0c0 1.566.493 2 2 2 1.507 0 2-.434 2-2a1 1 0 0 1 1-1zM12.194 4l-.781.004c-1.991.035-2.312.327-2.39 2.248h5.95v-.01c-.086-2.03-.439-2.233-2.779-2.242z"/></svg>