<svg xmlns="http://www.w3.org/2000/svg" width="37" height="41" class="Icon" tabindex="-1"><g fill="none" fill-rule="evenodd"><path fill="#3F4952" fill-rule="nonzero" d="M32.828 10.098v-.081a1.033 1.033 0 0 0-.102-.297.91.91 0 0 0-.203-.216l-.056-.054h-.055L19 1.62a.947.947 0 0 0-.925 0l-6.753 3.861-6.697 3.915a1.154 1.154 0 0 0-.222.198v.063a.89.89 0 0 0-.13.27.797.797 0 0 0 0 .207V25.83c0 .318.173.612.454.774l13.412 7.83a.944.944 0 0 0 .925.009l13.413-7.2a.896.896 0 0 0 .472-.783V10.17s-.12-.054-.12-.072zM18.5 32.625 6.012 25.317V11.583l11.563 6.921v6.813l-5.68-3.717 1.508-.369a.923.923 0 0 0 .568-.414.879.879 0 0 0 .098-.684.929.929 0 0 0-1.119-.612l-3.7.9a.868.868 0 0 0-.564.405.879.879 0 0 0-.102.684l.925 3.6a.922.922 0 0 0 .925.675.992.992 0 0 0 .231 0 .898.898 0 0 0 .666-1.089l-.37-1.458 7.04 4.563c.277.175.63.192.924.045a.896.896 0 0 0 .5-.846v-9a.895.895 0 0 0-.444-.765L7.039 10.08l5.226-3.051 6.235-3.6 11.6 6.768-9.25 5.265a.888.888 0 0 0-.375.963.918.918 0 0 0 .8.675.878.878 0 0 0 .463-.126l9.25-5.274v14.193L18.5 32.625z"/><path fill="#FB3D52" d="m0 11 18 11.1L29.518 15v19.503L18 40.597 0 29.777z" opacity=".2"/></g></svg>