<svg xmlns="http://www.w3.org/2000/svg" width="40" height="40" class="Icon DeliveryInfo_vanIcon__C3xIV" tabindex="-1"><g fill-rule="evenodd"><path d="M36 27h-2.557c-.693-1.189-1.968-2-3.443-2s-2.75.811-3.443 2H25V14h6.485L36 20.32V27zm-6 4c-1.103 0-2-.897-2-2s.897-2 2-2 2 .897 2 2-.897 2-2 2zm-17 0c-1.103 0-2-.897-2-2s.897-2 2-2 2 .897 2 2-.897 2-2 2zm24.813-11.581-5-7A.997.997 0 0 0 32 12h-7V7a1 1 0 0 0-1-1H5a1 1 0 0 0-1 1v2.728a1 1 0 0 0 2 0V8h17v19h-6.556c-.694-1.189-1.97-2-3.444-2s-2.75.811-3.444 2H6v-3a1 1 0 1 0-2 0v4a1 1 0 0 0 1 1h4c0 2.206 1.794 4 4 4s4-1.794 4-4h9c0 2.206 1.794 4 4 4s4-1.794 4-4h3a1 1 0 0 0 1-1v-8a.994.994 0 0 0-.187-.581z"/><path d="M3 14h7a1 1 0 0 0 0-2H3a1 1 0 0 0 0 2m8 7a1 1 0 0 0-1-1H3a1 1 0 1 0 0 2h7a1 1 0 0 0 1-1m-7-4a1 1 0 0 0 1 1h7a1 1 0 0 0 0-2H5a1 1 0 0 0-1 1"/></g></svg>