<svg xmlns="http://www.w3.org/2000/svg" width="24" height="24" aria-label="Zoom In" class="Icon carousel-left-control carousel-control" tabindex="-1"><path fill="#252525" fill-rule="evenodd" d="m16.613 15.21.094.083 5 5a1 1 0 0 1-1.32 1.497l-.094-.083-5-5a1 1 0 0 1 1.32-1.497zM9.5 2a7.5 7.5 0 1 1 0 15 7.5 7.5 0 0 1 0-15zm0 2C6.467 4 4 6.467 4 9.5S6.467 15 9.5 15 15 12.533 15 9.5 12.533 4 9.5 4zm0 2c.513 0 .936.294.993.672l.007.089V8.5h1.74c.42 0 .76.448.76 1 0 .513-.294.936-.672.993l-.089.007H10.5v1.74c0 .42-.448.76-1 .76-.513 0-.936-.294-.993-.672l-.007-.089V10.5H6.76c-.42 0-.76-.448-.76-1 0-.513.294-.936.672-.993l.089-.007H8.5V6.76c0-.42.448-.76 1-.76z"/></svg>